<svg xmlns="http://www.w3.org/2000/svg" xmlns:xlink="http://www.w3.org/1999/xlink" viewBox="0 0 70.66 114.36"><defs><style>.cls-1{fill:url(#linear-gradient);}</style><linearGradient id="linear-gradient" x1="19.86" y1="110.49" x2="61.43" y2="27.76" gradientUnits="userSpaceOnUse"><stop offset="0" stop-color="#1d51eb"/><stop offset="1" stop-color="#7b52eb"/></linearGradient></defs><g id="Layer_2" data-name="Layer 2"><g id="Layer_1-2" data-name="Layer 1"><path class="cls-1" d="M63,88.7c-.78-6.08-4.87-10.09-11.55-11.49-4.19-.87-8.3-.42-12.43.31a28.94,28.94,0,0,1-9.46.53c-.91-.14-1.86-.45-2.07-1.54s.57-1.85,1.49-2.34A13,13,0,0,1,31,73.29c3.54-1.1,7.26-1.06,10.89-1.45,16.36-1.76,22.12-18,16.17-30.5-1.05-2.21-1-3.42,1.1-4.52a6.34,6.34,0,0,0,.82-.57c2.49-1.79,2.5-1.8.4-3.85-1-1-2.14-1.88-3.11-2.91s-1.54-1-2.36.1S53,31.88,52,33.05c-.63.79-1.14.9-2.09.36A22,22,0,0,0,37.87,30.8c-9.74.4-17.6,6.13-19.55,15-2,9.07,0,17.76,9.16,23.13.33.19.79.35.71.94-1.19.54-2.42,1-3.58,1.64-3.9,2.07-5.28,4.49-4.76,8.19.48,3.41,3,5.72,7,6.57A26.62,26.62,0,0,0,37.73,86c3.78-.77,7.58-1.35,11.4-.24S54.85,90.9,53,94.27c-2.13,3.81-8,7.18-12.88,4.32-2.23-1.31-4.46-2.63-6.6-4.09-7.49-5.1-15.16-4.84-22.55-.17C3.7,98.88-.14,105.63,0,114.36a36.07,36.07,0,0,1,9.89-10.85c6.53-4.43,13.52-7.38,21.64-5.64,4.2.9,8,3,11.74,4.95,4.1,2.1,7.87,1.54,11.69-.44C61,99.28,63.72,94.59,63,88.7Zm-35-35c-.1-.83-.11-1.66-.13-2-.1-5.24,1.68-9,5.75-11.48a10.23,10.23,0,0,1,10.93-.07c4.38,2.51,6.29,8.51,5.36,14.27-1.05,6.44-5.2,9.84-11.57,9.68C33.08,64,28.6,59.51,27.93,53.71Z"/><path d="M62.79,32.31,58,27.73A27.7,27.7,0,0,0,59.58,25c.88-2,.25-3.72-1.82-4.45a18.52,18.52,0,0,0-4.22-.7,39.24,39.24,0,0,1-4.62-.33c-4.1-.95-6.23-3.89-7.16-7.79A20.7,20.7,0,0,1,42.7,0c.18.26.3.35.32.46a9.06,9.06,0,0,0,7.34,7.37A82.5,82.5,0,0,0,61.09,9.36c7.68.69,11.17,5.68,8.86,13A20.89,20.89,0,0,1,62.79,32.31Z"/></g></g></svg>