<svg xmlns="http://www.w3.org/2000/svg" xmlns:xlink="http://www.w3.org/1999/xlink" width="300" zoomAndPan="magnify" viewBox="0 0 224.87999 74.999997" height="100" preserveAspectRatio="xMidYMid meet" version="1.0"><defs><clipPath id="5c1e714b1a"><path d="M 1.515625 1.175781 L 213.5625 1.175781 L 213.5625 73.8125 L 1.515625 73.8125 Z M 1.515625 1.175781 " clip-rule="nonzero"/></clipPath></defs><g clip-path="url(#5c1e714b1a)"><path fill="#ffffff" d="M 120.042969 27.597656 C 113.636719 31.980469 107.976562 37.621094 104.09375 44.5 C 101.953125 48.292969 99.84375 53.113281 99.617188 58.785156 C 99.492188 61.898438 100.039062 64.582031 101.09375 66.691406 C 102.128906 68.757812 103.660156 70.382812 106.09375 71.117188 C 108.828125 71.945312 111.832031 71.21875 113.996094 70.308594 C 116.214844 69.371094 118.050781 68.082031 119.710938 66.640625 C 121.367188 65.207031 122.859375 63.488281 124.089844 61.640625 C 126.628906 57.832031 128.414062 53.464844 128.996094 47.738281 C 129.285156 44.882812 129.117188 41.804688 128.613281 39.027344 C 127.664062 33.796875 125.503906 29.46875 123.136719 25.695312 C 123.105469 25.695312 123.074219 25.695312 123.042969 25.695312 C 122.035156 26.355469 121.003906 26.941406 120.042969 27.597656 Z M 123.804688 22.550781 C 133.875 17.03125 145.394531 12.894531 159.707031 11.601562 C 165.84375 11.046875 172.753906 11.152344 178.5625 12.027344 C 190.140625 13.773438 199.226562 18.347656 206.699219 23.980469 C 206.421875 23.378906 205.960938 22.828125 205.558594 22.21875 C 204.757812 21.003906 203.933594 19.988281 203.175781 18.601562 C 202.820312 17.945312 202.382812 16.785156 203.367188 16.550781 C 204.21875 16.351562 204.726562 17.28125 205.035156 17.742188 C 207.449219 21.355469 209.609375 24.878906 212.320312 28.171875 C 212.585938 28.496094 212.792969 28.746094 212.984375 28.980469 C 213.238281 29.289062 213.527344 29.582031 213.558594 29.882812 C 213.617188 30.476562 213.164062 31.191406 212.792969 31.3125 C 212.234375 31.496094 211.589844 31.167969 211.035156 30.980469 C 209.261719 30.382812 207.957031 30.042969 205.9375 29.503906 C 205.117188 29.28125 203.320312 28.820312 202.460938 28.597656 C 201.804688 28.429688 199.609375 28.054688 199.75 26.882812 C 199.847656 26.066406 200.859375 26.128906 201.699219 26.3125 C 203.996094 26.816406 205.816406 27.476562 208.175781 28.121094 C 208.175781 27.90625 207.925781 27.839844 207.796875 27.742188 C 205.425781 25.929688 202.9375 24.097656 200.320312 22.457031 C 191.957031 17.21875 181.949219 13.804688 168.46875 13.601562 C 159.648438 13.464844 151.628906 14.699219 144.46875 16.648438 C 137.320312 18.59375 130.886719 21.335938 125.136719 24.457031 C 127.683594 28.574219 130.039062 33.328125 130.996094 39.167969 C 131.492188 42.21875 131.636719 45.65625 131.28125 48.785156 C 130.9375 51.765625 130.140625 54.605469 129.183594 56.976562 C 127.203125 61.890625 124.363281 65.757812 120.566406 68.925781 C 118.792969 70.410156 116.644531 71.84375 114.140625 72.785156 C 111.535156 73.761719 108.464844 74.222656 105.519531 73.355469 C 102.824219 72.5625 100.988281 70.996094 99.664062 68.925781 C 98.332031 66.839844 97.449219 64.15625 97.285156 61.023438 C 97.105469 57.648438 97.679688 54.601562 98.425781 51.882812 C 99.160156 49.210938 100.269531 46.71875 101.378906 44.550781 C 102.519531 42.320312 103.921875 40.226562 105.378906 38.265625 C 109.714844 32.425781 115.414062 27.664062 121.710938 23.789062 C 121.355469 23.089844 120.804688 22.519531 120.328125 21.933594 C 116.976562 17.800781 112.933594 14.226562 108.28125 11.316406 C 102.988281 8 96.980469 5.296875 89.617188 4.125 C 85.675781 3.496094 81.507812 3.367188 77.476562 3.695312 C 73.546875 4.019531 69.808594 4.785156 66.476562 5.648438 C 59.570312 7.441406 53.675781 9.949219 48.003906 13.027344 C 36.875 19.074219 27.640625 27.125 20.339844 37.121094 C 14.871094 44.609375 10.578125 53.109375 6.53125 62.117188 C 5.550781 64.304688 4.601562 66.542969 3.675781 68.976562 C 3.425781 69.628906 3.238281 70.875 2.34375 70.832031 C 1.816406 70.808594 1.605469 70.488281 1.53125 70.070312 C 1.390625 69.28125 2.261719 67.546875 2.628906 66.59375 C 3.910156 63.261719 5.3125 59.820312 6.675781 56.785156 C 8.613281 52.464844 10.609375 48.335938 12.816406 44.453125 C 17.328125 36.523438 22.882812 29.53125 29.054688 23.742188 C 32.210938 20.78125 35.699219 18.121094 39.386719 15.601562 C 46.695312 10.601562 54.976562 6.570312 64.476562 3.746094 C 66.855469 3.035156 69.390625 2.472656 72 2.03125 C 74.679688 1.578125 77.460938 1.359375 80.429688 1.222656 C 85.679688 0.976562 91 1.785156 95.046875 2.886719 C 99.378906 4.066406 103.113281 5.671875 106.519531 7.554688 C 113.625 11.480469 119.203125 16.425781 123.804688 22.550781 " fill-opacity="1" fill-rule="evenodd"/></g></svg>