<svg id="visual" viewBox="0 0 900 600" width="900" height="600" xmlns="http://www.w3.org/2000/svg" xmlns:xlink="http://www.w3.org/1999/xlink" version="1.1"><rect x="0" y="0" width="900" height="600" fill="#fff"></rect><path d="M0 446L21.5 438.2C43 430.3 86 414.7 128.8 406.3C171.7 398 214.3 397 257.2 401.3C300 405.7 343 415.3 385.8 435.7C428.7 456 471.3 487 514.2 486.5C557 486 600 454 642.8 454C685.7 454 728.3 486 771.2 497.7C814 509.3 857 500.7 878.5 496.3L900 492L900 601L878.5 601C857 601 814 601 771.2 601C728.3 601 685.7 601 642.8 601C600 601 557 601 514.2 601C471.3 601 428.7 601 385.8 601C343 601 300 601 257.2 601C214.3 601 171.7 601 128.8 601C86 601 43 601 21.5 601L0 601Z" fill="#FAFBFD" stroke-linecap="round" stroke-linejoin="miter"></path></svg>