<svg xmlns="http://www.w3.org/2000/svg" xmlns:xlink="http://www.w3.org/1999/xlink" viewBox="0 0 430 430" width="430" height="430" preserveAspectRatio="xMidYMid meet" style="width: 100%; height: 100%; transform: translate3d(0px, 0px, 0px); content-visibility: visible;"><defs><clipPath id="__lottie_element_1110"><rect width="430" height="430" x="0" y="0"></rect></clipPath><clipPath id="__lottie_element_1112"><path d="M0,0 L430,0 L430,430 L0,430z"></path></clipPath><clipPath id="__lottie_element_1117"><path d="M0,0 L430,0 L430,430 L0,430z"></path></clipPath><g id="__lottie_element_1120"><g transform="matrix(1,0,0,1,-35.001007080078125,-35)" opacity="1" style="display: block;"><g opacity="1" transform="matrix(1,0,0,1,270.0140075683594,270.0150146484375)"><path fill="rgb(255,255,255)" fill-opacity="1" d=" M113.41500091552734,-73.38800048828125 C113.41500091552734,-73.38800048828125 113.41699981689453,166.79100036621094 113.41699981689453,166.79100036621094 C113.41699981689453,166.79100036621094 -113.41699981689453,166.79100036621094 -113.41699981689453,166.79100036621094 C-113.41699981689453,166.79100036621094 -113.41699981689453,-166.79100036621094 -113.41699981689453,-166.79100036621094 C-113.41699981689453,-166.79100036621094 20.01799964904785,-166.78900146484375 20.01799964904785,-166.78900146484375"></path></g></g></g><g id="__lottie_element_1127"><g transform="matrix(1,0,0,1,-35.001007080078125,-35)" opacity="1" style="display: block;"><g opacity="1" transform="matrix(1,0,0,1,270.0140075683594,270.0150146484375)"><path fill="rgb(255,0,0)" fill-opacity="1" d=" M19.924999237060547,-166.79100036621094 C19.924999237060547,-166.79100036621094 19.924999237060547,-72.6240005493164 19.924999237060547,-72.6240005493164 C19.924999237060547,-72.6240005493164 113.41699981689453,-72.6240005493164 113.41699981689453,-72.6240005493164 C113.41699981689453,-72.6240005493164 113.41500091552734,-73.38800048828125 113.41500091552734,-73.38800048828125 C113.41500091552734,-73.38800048828125 20.01799964904785,-166.78900146484375 20.01799964904785,-166.78900146484375 C20.01799964904785,-166.78900146484375 19.924999237060547,-166.79100036621094 19.924999237060547,-166.79100036621094z"></path></g></g></g><filter id="__lottie_element_1133" filterUnits="objectBoundingBox" x="0%" y="0%" width="100%" height="100%"><feComponentTransfer in="SourceGraphic"><feFuncA type="table" tableValues="1.0 0.0"></feFuncA></feComponentTransfer></filter><mask id="__lottie_element_1127_2" mask-type="alpha"><g filter="url(#__lottie_element_1133)"><rect width="430" height="430" x="0" y="0" fill="#ffffff" opacity="0"></rect><use xlink:href="#__lottie_element_1127"></use></g></mask><filter id="__lottie_element_1134" filterUnits="objectBoundingBox" x="0%" y="0%" width="100%" height="100%"><feComponentTransfer in="SourceGraphic"><feFuncA type="table" tableValues="1.0 0.0"></feFuncA></feComponentTransfer></filter><mask id="__lottie_element_1120_2" mask-type="alpha"><g filter="url(#__lottie_element_1134)"><rect width="430" height="430" x="0" y="0" fill="#ffffff" opacity="0"></rect><use xlink:href="#__lottie_element_1120"></use></g></mask><clipPath id="__lottie_element_1552"><path d="M0,0 L430,0 L430,430 L0,430z"></path></clipPath><g id="__lottie_element_1561"><g style="display: block;" transform="matrix(1,0,0,1,215.01400756835938,150.6302490234375)" opacity="1"><g opacity="1" transform="matrix(1,0,0,1,19.496999740600586,191.82400512695312)"><path fill="rgb(255,255,255)" fill-opacity="1" d=" M110.12788391113281,-311.1846618652344 C112.64959716796875,-308.95819091796875 112.27899932861328,-218.34800720214844 112.27899932861328,-218.34800720214844 C112.27899932861328,-218.34800720214844 112.26399993896484,18.55299949645996 112.26399993896484,18.55299949645996 C112.26399993896484,18.55299949645996 -112.26399993896484,18.55299949645996 -112.26399993896484,18.55299949645996 C-112.26399993896484,18.55299949645996 -112.26399993896484,-313.5220031738281 -112.26399993896484,-313.5220031738281 C-112.26399993896484,-313.5220031738281 21.05500030517578,-313.3500061035156 21.05500030517578,-313.3500061035156 C21.05500030517578,-313.3500061035156 107.88018035888672,-313.1692199707031 110.12788391113281,-311.1846618652344z"></path><path stroke-linecap="butt" stroke-linejoin="miter" fill-opacity="0" stroke-miterlimit="4" stroke="rgb(0,8,255)" stroke-opacity="1" stroke-width="0" d=" M110.12788391113281,-311.1846618652344 C112.64959716796875,-308.95819091796875 112.27899932861328,-218.34800720214844 112.27899932861328,-218.34800720214844 C112.27899932861328,-218.34800720214844 112.26399993896484,18.55299949645996 112.26399993896484,18.55299949645996 C112.26399993896484,18.55299949645996 -112.26399993896484,18.55299949645996 -112.26399993896484,18.55299949645996 C-112.26399993896484,18.55299949645996 -112.26399993896484,-313.5220031738281 -112.26399993896484,-313.5220031738281 C-112.26399993896484,-313.5220031738281 21.05500030517578,-313.3500061035156 21.05500030517578,-313.3500061035156 C21.05500030517578,-313.3500061035156 107.88018035888672,-313.1692199707031 110.12788391113281,-311.1846618652344z"></path></g></g></g><filter id="__lottie_element_1564" filterUnits="objectBoundingBox" x="0%" y="0%" width="100%" height="100%"><feComponentTransfer in="SourceGraphic"><feFuncA type="table" tableValues="1.0 0.0"></feFuncA></feComponentTransfer></filter><mask id="__lottie_element_1561_2" mask-type="alpha"><g filter="url(#__lottie_element_1564)"><rect width="430" height="430" x="0" y="0" fill="#ffffff" opacity="0"></rect><use xlink:href="#__lottie_element_1561"></use></g></mask><clipPath id="__lottie_element_1600"><path d="M0,0 L430,0 L430,430 L0,430z"></path></clipPath><mask id="__lottie_element_1601"><rect fill="#ffffff" width="430" height="430" transform="matrix(1,0,0,1,0,0)"></rect><path fill="#000000" clip-rule="nonzero" d=" M330.6700134277344,388.2900085449219 C330.6700134277344,382.70001220703125 330.5690002441406,322.86199951171875 330.5690002441406,312.04400634765625 C286.3299865722656,312.04400634765625 167.96800231933594,312.28399658203125 134.96600341796875,312.51800537109375 C134.96600341796875,320.3500061035156 134.58999633789062,389.5799865722656 134.58999633789062,389.5799865722656 C134.58999633789062,389.5799865722656 136.74000549316406,411.0799865722656 117.81999969482422,411.0799865722656 C117.81999969482422,426.1300048828125 117.81999969482422,459.239990234375 117.81999969482422,459.239990234375 C117.81999969482422,459.239990234375 319.05999755859375,459.239990234375 319.05999755859375,459.239990234375 C319.05999755859375,459.239990234375 319.05999755859375,426.1300048828125 319.05999755859375,411.0799865722656 C325.94000244140625,411.0799865722656 330.6700134277344,399.4700012207031 330.6700134277344,388.2900085449219" fill-opacity="1"></path></mask><g id="__lottie_element_1603"><g transform="matrix(1,0,0,1,-35,-35.00001525878906)" opacity="1" style="display: none;"><g opacity="1" transform="matrix(1,0,0,1,270.0140075683594,270.0150146484375)"><path fill="rgb(255,0,0)" fill-opacity="1" d=" M93.55180358886719,-103.12390899658203 C93.55180358886719,-103.12390899658203 93.8313217163086,180.89808654785156 93.8313217163086,180.89808654785156 C93.8313217163086,180.89808654785156 -126.77994537353516,163.4375 -126.77994537353516,163.4375 C-126.77994537353516,163.4375 -143.0117645263672,-196.70474243164062 -143.0117645263672,-196.70474243164062 C-143.0117645263672,-196.70474243164062 0.15380242466926575,-196.52456665039062 0.15380242466926575,-196.52456665039062"></path></g></g></g><filter id="__lottie_element_1606" filterUnits="objectBoundingBox" x="0%" y="0%" width="100%" height="100%"><feComponentTransfer in="SourceGraphic"><feFuncA type="table" tableValues="1.0 0.0"></feFuncA></feComponentTransfer></filter><mask id="__lottie_element_1603_2" mask-type="alpha"><g filter="url(#__lottie_element_1606)"><rect width="430" height="430" x="0" y="0" fill="#ffffff" opacity="0"></rect><use xlink:href="#__lottie_element_1603"></use></g></mask><clipPath id="__lottie_element_1639"><path d="M0,0 L430,0 L430,430 L0,430z"></path></clipPath></defs><g clip-path="url(#__lottie_element_1110)"><g clip-path="url(#__lottie_element_1552)" transform="matrix(1,0,0,1,0,0)" opacity="1" style="display: none;"><g transform="matrix(1,0,0,1,201.65699768066406,194.98500061035156)" opacity="1" style="display: none;"><g opacity="1" transform="matrix(1,0,0,1,0,0)"><path stroke-linecap="round" stroke-linejoin="round" fill-opacity="0" class="primary" stroke="rgb(18,19,49)" stroke-opacity="1" stroke-width="12" d=" M-80.68199920654297,166.79100036621094 C-80.68199920654297,166.79100036621094 -120.08899688720703,166.79100036621094 -120.08899688720703,166.79100036621094 C-120.08899688720703,166.79100036621094 -120.08899688720703,-166.79100036621094 -120.08899688720703,-166.79100036621094 C-120.08899688720703,-166.79100036621094 120.08899688720703,-166.79100036621094 120.08899688720703,-166.79100036621094 C120.08899688720703,-166.79100036621094 120.08899688720703,-60.91600036621094 120.08899688720703,-60.91600036621094"></path></g></g><g mask="url(#__lottie_element_1603_2)" style="display: none;"><g clip-path="url(#__lottie_element_1600)" transform="matrix(1,0,0,1,0,0)" opacity="1"><g mask="url(#__lottie_element_1601)"><g transform="matrix(1,0,0,1,201.65699768066406,194.98500061035156)" opacity="1" style="display: block;"><g opacity="1" transform="matrix(1,0,0,1,0,0)"><path stroke-linecap="round" stroke-linejoin="round" fill-opacity="0" class="primary" stroke="rgb(18,19,49)" stroke-opacity="1" stroke-width="12" d="M0 0"></path></g></g><g transform="matrix(1,0,0,1,201.65699768066406,194.98500061035156)" opacity="1" style="display: block;"><g opacity="1" transform="matrix(1,0,0,1,0,0)"><path stroke-linecap="round" stroke-linejoin="round" fill-opacity="0" class="primary" stroke="rgb(18,19,49)" stroke-opacity="1" stroke-width="12" d="M0 0"></path></g></g><g transform="matrix(1,0,0,1,246.4604949951172,625.5125122070312)" opacity="1" style="display: block;"><g opacity="1" transform="matrix(1,0,0,1,0,0)"><path stroke-linecap="round" stroke-linejoin="round" fill-opacity="0" class="primary" stroke="rgb(18,19,49)" stroke-opacity="1" stroke-width="12" d=" M-133.5,-186 C-133.5,-186 97.04243469238281,-186 97.04243469238281,-186"></path></g></g><g transform="matrix(1,0,0,1,246.45399475097656,625.5020141601562)" opacity="1" style="display: none;"><g opacity="1" transform="matrix(1,0,0,1,0,0)"><path stroke-linecap="round" stroke-linejoin="round" fill-opacity="0" class="primary" stroke="rgb(18,19,49)" stroke-opacity="1" stroke-width="12" d=" M-133.5,-186 C-133.5,-186 97.44183349609375,-186 97.44183349609375,-186"></path></g></g><g transform="matrix(1,0,0,1,237.5,629)" opacity="1" style="display: block;"><g opacity="1" transform="matrix(1,0,0,1,0,0)"><path stroke-linecap="round" stroke-linejoin="round" fill-opacity="0" class="primary" stroke="rgb(18,19,49)" stroke-opacity="1" stroke-width="12" d=" M-133.5,-186 C-133.5,-186 96.75,-186 96.75,-186"></path></g></g></g></g></g><g mask="url(#__lottie_element_1561_2)" style="display: block;"><g transform="matrix(1,0,0,1,-35,-35.00001525878906)" opacity="1"><g opacity="1" transform="matrix(1,0,0,1,270.0140075683594,270.0150146484375)"><path stroke-linecap="round" stroke-linejoin="round" fill-opacity="0" class="primary" stroke="rgb(18,19,49)" stroke-opacity="1" stroke-width="12" d=" M87.34474182128906,-112.416259765625 C87.34474182128906,-112.416259765625 87.34576416015625,127.76274108886719 87.34576416015625,127.76274108886719 C87.34576416015625,127.76274108886719 -152.2595672607422,127.52989196777344 -152.2595672607422,127.52989196777344 C-152.2595672607422,127.52989196777344 -152.2595672607422,-206.05210876464844 -152.2595672607422,-206.05210876464844 C-152.2595672607422,-206.05210876464844 -6.053236961364746,-205.81626892089844 -6.053236961364746,-205.81626892089844"></path></g><g opacity="1" transform="matrix(1,0,0,1,336.7300109863281,149.92799377441406)"><path stroke-linecap="round" stroke-linejoin="round" fill-opacity="0" class="primary" stroke="rgb(18,19,49)" stroke-opacity="1" stroke-width="12" d=" M-73.01945495605469,-86.09591674804688 C-73.01945495605469,-86.09591674804688 4.279163360595703,-85.82258605957031 20.209753036499023,-85.06599426269531 C20.308677673339844,-70.02206420898438 20.383543014526367,7.301085948944092 20.383543014526367,7.301085948944092"></path></g><g opacity="0" transform="matrix(1,0,0,1,336.7300109863281,149.92799377441406)"><path stroke-linecap="round" stroke-linejoin="round" fill-opacity="0" class="primary" stroke="rgb(18,19,49)" stroke-opacity="1" stroke-width="12" d=" M20.63076400756836,7.670743465423584 C20.63076400756836,7.670743465423584 -72.77225494384766,-85.72627258300781 -72.77225494384766,-85.72627258300781"></path></g><g opacity="1" transform="matrix(1,0,0,1,270.0150146484375,303.37298583984375)"><path stroke-linecap="round" stroke-linejoin="round" fill-opacity="0" class="secondary" stroke="rgb(8,168,138)" stroke-opacity="1" stroke-width="12" d=" M-112.23155212402344,-39.261104583740234 C-112.23155212402344,-39.261104583740234 47.31676483154297,-39.02727508544922 47.31676483154297,-39.02727508544922"></path></g><g opacity="1" transform="matrix(1,0,0,1,270.0150146484375,343.40301513671875)"><path stroke-linecap="round" stroke-linejoin="round" fill-opacity="0" class="secondary" stroke="rgb(8,168,138)" stroke-opacity="1" stroke-width="12" d=" M-112.23155212402344,-39.261104583740234 C-112.23155212402344,-39.261104583740234 47.31676483154297,-39.02727508544922 47.31676483154297,-39.02727508544922"></path></g><g opacity="1" transform="matrix(1,0,0,1,270.0150146484375,383.4330139160156)"><path stroke-linecap="round" stroke-linejoin="round" fill-opacity="0" class="secondary" stroke="rgb(8,168,138)" stroke-opacity="1" stroke-width="12" d=" M-112.23155212402344,-39.261104583740234 C-112.23155212402344,-39.261104583740234 47.31676483154297,-39.02727508544922 47.31676483154297,-39.02727508544922"></path></g></g></g><g transform="matrix(1,0,0,1,201.65699768066406,194.98500061035156)" opacity="1" style="display: none;"><g opacity="1" transform="matrix(1,0,0,1,0,0)"><path stroke-linecap="round" stroke-linejoin="round" fill-opacity="0" class="primary" stroke="rgb(18,19,49)" stroke-opacity="1" stroke-width="12" d=" M-80.68199920654297,166.79100036621094 C-80.68199920654297,166.79100036621094 -120.08899688720703,166.79100036621094 -120.08899688720703,166.79100036621094 C-120.08899688720703,166.79100036621094 -120.08899688720703,-166.79100036621094 -120.08899688720703,-166.79100036621094 C-120.08899688720703,-166.79100036621094 120.08899688720703,-166.79100036621094 120.08899688720703,-166.79100036621094 C120.08899688720703,-166.79100036621094 120.08899688720703,-60.91600036621094 120.08899688720703,-60.91600036621094"></path></g></g><g clip-path="url(#__lottie_element_1639)" transform="matrix(1,0,0,1,0,0)" opacity="1" style="display: none;"><g transform="matrix(1,0,0,1,252.08779907226562,618.4132080078125)" opacity="1" style="display: block;"><g opacity="1" transform="matrix(1,0,0,1,0,0)"><path stroke-linecap="round" stroke-linejoin="round" fill-opacity="0" class="primary" stroke="rgb(18,19,49)" stroke-opacity="1" stroke-width="12" d=" M-133.5,-186 C-133.5,-186 95.8024673461914,-186 95.8024673461914,-186"></path></g></g><g transform="matrix(1,0,0,1,256,285.6123046875)" opacity="1" style="display: block;"><g opacity="1" transform="matrix(1,0,0,1,0,0)"><path stroke-linecap="round" stroke-linejoin="round" fill-opacity="0" class="primary" stroke="rgb(18,19,49)" stroke-opacity="1" stroke-width="12" d=" M-133.5,-186 C-133.5,-186 92,-186 92,-186"></path></g></g><g transform="matrix(1,0,0,1,201.65699768066406,194.98500061035156)" opacity="1" style="display: block;"><g opacity="1" transform="matrix(1,0,0,1,0,0)"><path stroke-linecap="round" stroke-linejoin="round" fill-opacity="0" class="primary" stroke="rgb(18,19,49)" stroke-opacity="1" stroke-width="12" d=" M-79.65699768066406,-94.1520004272461 C-79.65699768066406,-6.5929999351501465 -79.65699768066406,140.01800537109375 -79.65699768066406,227.88999938964844 C-79.65699768066406,231.77000427246094 -80.79000091552734,235.2949981689453 -82.3740005493164,238.05999755859375"></path></g></g><g transform="matrix(1,0,0,1,201.65699768066406,194.98500061035156)" opacity="1" style="display: block;"><g opacity="1" transform="matrix(1,0,0,1,0,0)"><path stroke-linecap="round" stroke-linejoin="round" fill-opacity="0" class="primary" stroke="rgb(18,19,49)" stroke-opacity="1" stroke-width="12" d=" M146.4530029296875,-95.42400360107422 C146.6009979248047,2.5 146.84300231933594,172.91299438476562 146.84300231933594,234.10299682617188 C146.84300231933594,234.16200256347656 146.84300231933594,234.2209930419922 146.8419952392578,234.281005859375"></path></g></g></g><g transform="matrix(1,0,0,1,-35,-74.384765625)" opacity="1" style="display: block;"><g opacity="1" transform="matrix(1,0,0,1,0,0)"><g opacity="1" transform="matrix(1,0,0,1,270.0150146484375,303.37298583984375)"><path stroke-linecap="round" stroke-linejoin="round" fill-opacity="0" class="secondary" stroke="rgb(8,168,138)" stroke-opacity="1" stroke-width="12" d=" M-107.35042572021484,0 C-107.35042572021484,0 -86.36917114257812,0 -86.36917114257812,0"></path></g><g opacity="1" transform="matrix(1,0,0,1,270.0150146484375,343.40301513671875)"><path stroke-linecap="round" stroke-linejoin="round" fill-opacity="0" class="secondary" stroke="rgb(8,168,138)" stroke-opacity="1" stroke-width="12" d=" M-113.01499938964844,0 C-113.01499938964844,0 -113.01499938964844,0 -113.01499938964844,0"></path></g><g opacity="1" transform="matrix(1,0,0,1,270.0150146484375,383.4330139160156)"><path stroke-linecap="round" stroke-linejoin="round" fill-opacity="0" class="secondary" stroke="rgb(8,168,138)" stroke-opacity="1" stroke-width="12" d=" M-113.01499938964844,0 C-113.01499938964844,0 -113.01499938964844,0 -113.01499938964844,0"></path></g></g><g opacity="1" transform="matrix(1,0,0,1,270.0140075683594,270.0150146484375)"><path stroke-linecap="round" stroke-linejoin="round" fill-opacity="0" class="primary" stroke="rgb(18,19,49)" stroke-opacity="1" stroke-width="12" d=" M113.41500091552734,-73.38800048828125 C113.41500091552734,-73.38800048828125 113.41699981689453,166.79100036621094 113.41699981689453,166.79100036621094 C113.41699981689453,166.79100036621094 -113.41699981689453,166.79100036621094 -113.41699981689453,166.79100036621094 C-113.41699981689453,166.79100036621094 -113.41699981689453,-166.79100036621094 -113.41699981689453,-166.79100036621094 C-113.41699981689453,-166.79100036621094 20.01799964904785,-166.78900146484375 20.01799964904785,-166.78900146484375"></path></g><g opacity="1" transform="matrix(1,0,0,1,336.7300109863281,149.92799377441406)"><path stroke-linecap="round" stroke-linejoin="round" fill-opacity="0" class="primary" stroke="rgb(18,19,49)" stroke-opacity="1" stroke-width="12" d=" M-46.70199966430664,-46.69900131225586 C-39.31105041503906,-46.312217712402344 37.9344367980957,-48.000732421875 42.84477615356445,-43.09065246582031 C47.77043151855469,-38.16525650024414 47.0963134765625,41.48754119873047 46.70199966430664,46.69900131225586"></path></g><g opacity="0" transform="matrix(1,0,0,1,336.7300109863281,149.92799377441406)"><path stroke-linecap="round" stroke-linejoin="round" fill-opacity="0" class="primary" stroke="rgb(18,19,49)" stroke-opacity="1" stroke-width="12" d=" M46.70199966430664,46.69900131225586 C46.70199966430664,46.69900131225586 -46.70199966430664,-46.69900131225586 -46.70199966430664,-46.69900131225586"></path></g></g><g transform="matrix(1,0,0,1,237.5,629)" opacity="1" style="display: none;"><g opacity="1" transform="matrix(1,0,0,1,0,0)"><path stroke-linecap="round" stroke-linejoin="round" fill-opacity="0" class="primary" stroke="rgb(18,19,49)" stroke-opacity="1" stroke-width="12" d=" M-133.5,-186 C-133.5,-186 96.75,-186 96.75,-186"></path></g></g></g><g clip-path="url(#__lottie_element_1112)" transform="matrix(1,0,0,1,0,0)" opacity="1" style="display: block;"><g mask="url(#__lottie_element_1120_2)" style="display: block;"><g clip-path="url(#__lottie_element_1117)" transform="matrix(1,0,0,1,0,0)" opacity="1"><g transform="matrix(1,0,0,1,201.65699768066406,194.98500061035156)" opacity="1" style="display: block;"><g opacity="1" transform="matrix(1,0,0,1,0,0)"><path stroke-linecap="round" stroke-linejoin="round" fill-opacity="0" class="primary" stroke="rgb(18,19,49)" stroke-opacity="1" stroke-width="6" d=" M120.08899688720703,-166.79100036621094 C120.08899688720703,-166.79100036621094 120.08899688720703,166.79100036621094 120.08899688720703,166.79100036621094 C120.08899688720703,166.79100036621094 -120.08899688720703,166.79100036621094 -120.08899688720703,166.79100036621094 C-120.08899688720703,166.79100036621094 -120.08899688720703,-166.79100036621094 -120.08899688720703,-166.79100036621094 C-120.08899688720703,-166.79100036621094 120.08899688720703,-166.79100036621094 120.08899688720703,-166.79100036621094z"></path></g></g></g></g><g transform="matrix(1,0,0,1,-35.001007080078125,-35)" opacity="1" style="display: none;"><g opacity="1" transform="matrix(1,0,0,1,270.0150146484375,303.37298583984375)"><path class="primary" fill="rgb(18,19,49)" fill-opacity="1" d=" M-73.38800048828125,0 C-73.38800048828125,0 73.38800048828125,0 73.38800048828125,0"></path><path stroke-linecap="round" stroke-linejoin="round" fill-opacity="0" class="secondary" stroke="rgb(90,73,188)" stroke-opacity="1" stroke-width="6" d=" M-73.38800048828125,0 C-73.38800048828125,0 73.38800048828125,0 73.38800048828125,0"></path></g><g opacity="1" transform="matrix(1,0,0,1,270.0150146484375,343.40301513671875)"><path class="primary" fill="rgb(18,19,49)" fill-opacity="1" d=" M-73.38800048828125,0 C-73.38800048828125,0 73.38800048828125,0 73.38800048828125,0"></path><path stroke-linecap="round" stroke-linejoin="round" fill-opacity="0" class="secondary" stroke="rgb(90,73,188)" stroke-opacity="1" stroke-width="6" d=" M-73.38800048828125,0 C-73.38800048828125,0 73.38800048828125,0 73.38800048828125,0"></path></g><g opacity="1" transform="matrix(1,0,0,1,270.0150146484375,383.4330139160156)"><path class="primary" fill="rgb(18,19,49)" fill-opacity="1" d=" M-73.38800048828125,0 C-73.38800048828125,0 73.38800048828125,0 73.38800048828125,0"></path><path stroke-linecap="round" stroke-linejoin="round" fill-opacity="0" class="secondary" stroke="rgb(90,73,188)" stroke-opacity="1" stroke-width="6" d=" M-73.38800048828125,0 C-73.38800048828125,0 73.38800048828125,0 73.38800048828125,0"></path></g></g><g mask="url(#__lottie_element_1127_2)" style="display: block;"><g transform="matrix(1,0,0,1,-35.001007080078125,-35)" opacity="1"><g opacity="1" transform="matrix(1,0,0,1,270.0150146484375,303.37298583984375)"><path class="primary" fill="rgb(18,19,49)" fill-opacity="1" d=" M-73.38800048828125,0 C-73.38800048828125,0 73.38800048828125,0 73.38800048828125,0"></path><path stroke-linecap="round" stroke-linejoin="round" fill-opacity="0" class="secondary" stroke="rgb(90,73,188)" stroke-opacity="1" stroke-width="6" d=" M-73.38800048828125,0 C-73.38800048828125,0 73.38800048828125,0 73.38800048828125,0"></path></g><g opacity="1" transform="matrix(1,0,0,1,270.0150146484375,343.40301513671875)"><path class="primary" fill="rgb(18,19,49)" fill-opacity="1" d=" M-73.38800048828125,0 C-73.38800048828125,0 73.38800048828125,0 73.38800048828125,0"></path><path stroke-linecap="round" stroke-linejoin="round" fill-opacity="0" class="secondary" stroke="rgb(90,73,188)" stroke-opacity="1" stroke-width="6" d=" M-73.38800048828125,0 C-73.38800048828125,0 73.38800048828125,0 73.38800048828125,0"></path></g><g opacity="1" transform="matrix(1,0,0,1,270.0150146484375,383.4330139160156)"><path class="primary" fill="rgb(18,19,49)" fill-opacity="1" d=" M-73.38800048828125,0 C-73.38800048828125,0 73.38800048828125,0 73.38800048828125,0"></path><path stroke-linecap="round" stroke-linejoin="round" fill-opacity="0" class="secondary" stroke="rgb(90,73,188)" stroke-opacity="1" stroke-width="6" d=" M-73.38800048828125,0 C-73.38800048828125,0 73.38800048828125,0 73.38800048828125,0"></path></g></g></g><g transform="matrix(1,0,0,1,-35.001007080078125,-35)" opacity="1" style="display: block;"><g opacity="1" transform="matrix(1,0,0,1,270.0140075683594,270.0150146484375)"><path stroke-linecap="round" stroke-linejoin="round" fill-opacity="0" class="primary" stroke="rgb(18,19,49)" stroke-opacity="1" stroke-width="6" d=" M-113.41699981689453,-166.79100036621094 C-113.41699981689453,-166.79100036621094 -113.41699981689453,166.79100036621094 -113.41699981689453,166.79100036621094 C-113.41699981689453,166.79100036621094 113.41699981689453,166.79100036621094 113.41699981689453,166.79100036621094 C113.41699981689453,166.79100036621094 113.41500091552734,-73.38800048828125 113.41500091552734,-73.38800048828125 C113.41500091552734,-73.38800048828125 20.01799964904785,-166.78900146484375 20.01799964904785,-166.78900146484375 C20.01799964904785,-166.78900146484375 -113.41699981689453,-166.79100036621094 -113.41699981689453,-166.79100036621094z"></path></g><g opacity="1" transform="matrix(1,0,0,1,336.7300109863281,149.92799377441406)"><path stroke-linecap="round" stroke-linejoin="round" fill-opacity="0" class="primary" stroke="rgb(18,19,49)" stroke-opacity="1" stroke-width="6" d=" M-46.70199966430664,-46.69900131225586 C-46.70199966430664,-46.69900131225586 -46.70199966430664,46.69900131225586 -46.70199966430664,46.69900131225586 C-46.70199966430664,46.69900131225586 46.70199966430664,46.69900131225586 46.70199966430664,46.69900131225586"></path></g><g opacity="0" transform="matrix(1,0,0,1,336.7300109863281,149.92799377441406)"><path stroke-linecap="round" stroke-linejoin="round" fill-opacity="0" class="primary" stroke="rgb(18,19,49)" stroke-opacity="1" stroke-width="6" d=" M-46.70199966430664,-46.69900131225586 C-46.70199966430664,-46.69900131225586 -45.23400115966797,-44.32600021362305 -0.38199999928474426,0.7839999794960022 C45.45000076293945,46.87900161743164 46.70199966430664,46.69900131225586 46.70199966430664,46.69900131225586"></path></g></g></g></g></svg>