<svg xmlns="http://www.w3.org/2000/svg" xmlns:xlink="http://www.w3.org/1999/xlink" viewBox="0 0 430 430" width="430" height="430" preserveAspectRatio="xMidYMid meet" style="width: 100%; height: 100%; transform: translate3d(0px, 0px, 0px); content-visibility: visible;"><defs><clipPath id="__lottie_element_2730"><rect width="430" height="430" x="0" y="0"></rect></clipPath><clipPath id="__lottie_element_2732"><path d="M0,0 L430,0 L430,430 L0,430z"></path></clipPath><clipPath id="__lottie_element_2740"><path d="M0,0 L430,0 L430,430 L0,430z"></path></clipPath><g id="__lottie_element_2743"><g transform="matrix(0.993463933467865,-0.11414633691310883,0.11414633691310883,0.993463933467865,-97.4521713256836,-1.013874888420105)" opacity="1" style="display: none;"><g opacity="1" transform="matrix(1,0,0,1,250,249.75999450683594)"><path fill="rgb(255,0,0)" fill-opacity="1" d=" M26.690000534057617,-186.57000732421875 C26.690000534057617,-186.57000732421875 -133.42999267578125,-186.57000732421875 -133.42999267578125,-186.57000732421875 C-133.42999267578125,-186.57000732421875 -133.42999267578125,186.57000732421875 -133.42999267578125,186.57000732421875 C-133.42999267578125,186.57000732421875 133.42999267578125,186.57000732421875 133.42999267578125,186.57000732421875 C133.42999267578125,186.57000732421875 133.42999267578125,-79.81999969482422 133.42999267578125,-79.81999969482422 C133.42999267578125,-79.81999969482422 26.690000534057617,-186.57000732421875 26.690000534057617,-186.57000732421875z"></path></g></g></g><filter id="__lottie_element_2749" filterUnits="objectBoundingBox" x="0%" y="0%" width="100%" height="100%"><feComponentTransfer in="SourceGraphic"><feFuncA type="table" tableValues="1.0 0.0"></feFuncA></feComponentTransfer></filter><mask id="__lottie_element_2743_2" mask-type="alpha"><g filter="url(#__lottie_element_2749)"><rect width="430" height="430" x="0" y="0" fill="#ffffff" opacity="0"></rect><use xlink:href="#__lottie_element_2743"></use></g></mask><clipPath id="__lottie_element_2778"><path d="M0,0 L430,0 L430,430 L0,430z"></path></clipPath></defs><g clip-path="url(#__lottie_element_2730)"><g clip-path="url(#__lottie_element_2732)" transform="matrix(1,0,0,1,0,0)" opacity="1" style="display: block;"><g clip-path="url(#__lottie_element_2778)" transform="matrix(1,0,0,1,0,0)" opacity="1" style="display: block;"><g transform="matrix(1,0,0,1,80,30)" opacity="1" style="display: block;"><g opacity="1" transform="matrix(1,0,0,1,108.31999969482422,251.71600341796875)"><path stroke-linecap="round" stroke-linejoin="round" fill-opacity="0" class="secondary" stroke="rgb(90,73,188)" stroke-opacity="1" stroke-width="6" d=" M-26.69300079345703,12.581000328063965 C-26.69300079345703,12.581000328063965 26.69300079345703,66.71600341796875 26.69300079345703,66.71600341796875 C26.69300079345703,66.71600341796875 26.66699981689453,-66.71600341796875 26.66699981689453,-66.71600341796875"></path></g><g opacity="1" transform="matrix(1,0,0,1,161.44700622558594,291.6099853515625)"><path stroke-linecap="round" stroke-linejoin="round" fill-opacity="0" class="secondary" stroke="rgb(90,73,188)" stroke-opacity="1" stroke-width="6" d=" M-26.43400001525879,26.82200050354004 C-26.43400001525879,26.82200050354004 26.43400001525879,-26.82200050354004 26.43400001525879,-26.82200050354004"></path></g></g></g><g mask="url(#__lottie_element_2743_2)" style="display: none;"><g clip-path="url(#__lottie_element_2740)" transform="matrix(0.993463933467865,-0.11414633691310883,0.11414633691310883,0.993463933467865,-57.69234848022461,29.648094177246094)" opacity="1"><g transform="matrix(1,0,0,1,80,30)" opacity="1" style="display: block;"><g opacity="1" transform="matrix(1,0,0,1,108.31999969482422,251.71600341796875)"><path stroke-linecap="round" stroke-linejoin="round" fill-opacity="0" class="secondary" stroke="rgb(90,73,188)" stroke-opacity="1" stroke-width="6" d=" M-26.69300079345703,12.581000328063965 C-26.69300079345703,12.581000328063965 26.69300079345703,66.71600341796875 26.69300079345703,66.71600341796875 C26.69300079345703,66.71600341796875 26.66699981689453,-66.71600341796875 26.66699981689453,-66.71600341796875"></path></g><g opacity="1" transform="matrix(1,0,0,1,161.44700622558594,291.6099853515625)"><path stroke-linecap="round" stroke-linejoin="round" fill-opacity="0" class="secondary" stroke="rgb(90,73,188)" stroke-opacity="1" stroke-width="6" d=" M-26.43400001525879,26.82200050354004 C-26.43400001525879,26.82200050354004 26.43400001525879,-26.82200050354004 26.43400001525879,-26.82200050354004"></path></g></g></g></g><g transform="matrix(1,0,0,1,-35,-35)" opacity="1" style="display: block;"><g opacity="1" transform="matrix(1,0,0,1,250,249.75999450683594)"><path stroke-linecap="round" stroke-linejoin="round" fill-opacity="0" class="primary" stroke="rgb(18,19,49)" stroke-opacity="1" stroke-width="6" d=" M26.690000534057617,-186.57000732421875 C26.690000534057617,-186.57000732421875 -133.42999267578125,-186.57000732421875 -133.42999267578125,-186.57000732421875 C-133.42999267578125,-186.57000732421875 -133.42999267578125,186.57000732421875 -133.42999267578125,186.57000732421875 C-133.42999267578125,186.57000732421875 133.42999267578125,186.57000732421875 133.42999267578125,186.57000732421875 C133.42999267578125,186.57000732421875 133.42999267578125,-79.81999969482422 133.42999267578125,-79.81999969482422 C133.42999267578125,-79.81999969482422 26.690000534057617,-186.57000732421875 26.690000534057617,-186.57000732421875z"></path></g><g opacity="0" transform="matrix(1,0,0,1,330.05999755859375,116.56700134277344)"><path stroke-linecap="round" stroke-linejoin="round" fill-opacity="0" class="primary" stroke="rgb(18,19,49)" stroke-opacity="1" stroke-width="6" d=" M-213.23699951171875,-53.37300109863281 C-213.23699951171875,-53.37300109863281 -213.23699951171875,319.57000732421875 -213.23699951171875,319.57000732421875 C-213.23699951171875,319.57000732421875 53.37300109863281,319.57000732421875 53.37300109863281,319.57000732421875"></path></g></g><g transform="matrix(1,0,0,1,-35,-35)" opacity="1" style="display: block;"><g opacity="1" transform="matrix(1,0,0,1,330.05999755859375,116.56700134277344)"><path stroke-linecap="round" stroke-linejoin="round" fill-opacity="0" class="primary" stroke="rgb(18,19,49)" stroke-opacity="1" stroke-width="6" d=" M-53.37300109863281,-53.37300109863281 C-53.37300109863281,-53.37300109863281 -53.37300109863281,53.37300109863281 -53.37300109863281,53.37300109863281 C-53.37300109863281,53.37300109863281 53.37300109863281,53.37300109863281 53.37300109863281,53.37300109863281"></path></g></g></g></g></svg>