<svg xmlns="http://www.w3.org/2000/svg" xmlns:xlink="http://www.w3.org/1999/xlink" width="100" zoomAndPan="magnify" viewBox="0 0 75 30.000001" height="40" preserveAspectRatio="xMidYMid meet" version="1.0"><defs><clipPath id="d1f2a8eea3"><path d="M 8.46875 14 L 66.53125 14 L 66.53125 15 L 8.46875 15 Z M 8.46875 14 " clip-rule="nonzero"/></clipPath><clipPath id="a6f294a150"><path d="M 15 12.761719 L 47 12.761719 L 47 14 L 15 14 Z M 15 12.761719 " clip-rule="nonzero"/></clipPath><clipPath id="bb1301483a"><path d="M 28 16 L 60 16 L 60 16.390625 L 28 16.390625 Z M 28 16 " clip-rule="nonzero"/></clipPath></defs><g clip-path="url(#d1f2a8eea3)"><path fill="#000000" d="M 66.398438 14.722656 L 8.609375 14.722656 C 8.53125 14.722656 8.46875 14.65625 8.46875 14.578125 C 8.46875 14.496094 8.53125 14.429688 8.609375 14.429688 L 66.398438 14.429688 C 66.472656 14.429688 66.539062 14.496094 66.539062 14.578125 C 66.539062 14.65625 66.472656 14.722656 66.398438 14.722656 Z M 66.398438 14.722656 " fill-opacity="1" fill-rule="nonzero"/></g><g clip-path="url(#a6f294a150)"><path fill="#000000" d="M 46.339844 13.054688 L 15.527344 13.054688 C 15.449219 13.054688 15.386719 12.992188 15.386719 12.910156 C 15.386719 12.832031 15.449219 12.765625 15.527344 12.765625 L 46.339844 12.765625 C 46.417969 12.765625 46.480469 12.832031 46.480469 12.910156 C 46.480469 12.992188 46.417969 13.054688 46.339844 13.054688 Z M 46.339844 13.054688 " fill-opacity="1" fill-rule="nonzero"/></g><g clip-path="url(#bb1301483a)"><path fill="#000000" d="M 59.480469 16.386719 L 28.667969 16.386719 C 28.589844 16.386719 28.527344 16.324219 28.527344 16.242188 C 28.527344 16.164062 28.589844 16.097656 28.667969 16.097656 L 59.480469 16.097656 C 59.558594 16.097656 59.621094 16.164062 59.621094 16.242188 C 59.621094 16.324219 59.558594 16.386719 59.480469 16.386719 Z M 59.480469 16.386719 " fill-opacity="1" fill-rule="nonzero"/></g></svg>