<svg xmlns="http://www.w3.org/2000/svg" xmlns:xlink="http://www.w3.org/1999/xlink" width="180" zoomAndPan="magnify" viewBox="0 0 135 225" height="300" preserveAspectRatio="xMidYMid meet" version="1.0"><defs><clipPath id="7e2bb3e131"><path d="M 33 0 L 34 0 L 34 67.5 L 33 67.5 Z M 33 0 " clip-rule="nonzero"/></clipPath><clipPath id="bcc1b8692f"><path d="M 0 33 L 67.5 33 L 67.5 34 L 0 34 Z M 0 33 " clip-rule="nonzero"/></clipPath></defs><g clip-path="url(#7e2bb3e131)"><path fill="#000000" d="M 33.894531 67.511719 L 33.59375 67.511719 L 33.59375 0.015625 L 33.894531 0.015625 Z M 33.894531 67.511719 " fill-opacity="1" fill-rule="nonzero"/></g><path fill="#000000" d="M 54.414062 46.992188 L 13.074219 46.992188 L 13.074219 46.6875 L 54.414062 46.6875 Z M 54.414062 46.992188 " fill-opacity="1" fill-rule="nonzero"/><g clip-path="url(#bcc1b8692f)"><path fill="#000000" d="M 67.492188 33.917969 L -0.00390625 33.917969 L -0.00390625 33.613281 L 67.492188 33.613281 Z M 67.492188 33.917969 " fill-opacity="1" fill-rule="nonzero"/></g><path fill="#000000" d="M 20.820312 54.4375 L 20.515625 54.4375 L 20.515625 13.09375 L 20.820312 13.09375 Z M 20.820312 54.4375 " fill-opacity="1" fill-rule="nonzero"/></svg>