<svg xmlns="http://www.w3.org/2000/svg" xmlns:xlink="http://www.w3.org/1999/xlink" width="180" zoomAndPan="magnify" viewBox="0 0 135 225" height="300" preserveAspectRatio="xMidYMid meet" version="1.0"><defs><clipPath id="513fb9f031"><path d="M 81.742188 0 L 134.992188 0 L 134.992188 60.75 L 81.742188 60.75 Z M 81.742188 0 " clip-rule="nonzero"/></clipPath></defs><g clip-path="url(#513fb9f031)"><path fill="#000000" d="M 83.363281 0.835938 C 83.359375 0.496094 83.515625 0.261719 83.828125 0.132812 C 84.136719 0.00390625 84.410156 0.0585938 84.648438 0.300781 L 122.777344 38.84375 C 122.910156 38.996094 122.972656 39.167969 122.96875 39.371094 C 122.964844 39.570312 122.890625 39.742188 122.75 39.886719 C 122.609375 40.027344 122.4375 40.101562 122.238281 40.109375 C 122.039062 40.113281 121.867188 40.046875 121.71875 39.914062 L 83.582031 1.378906 C 83.433594 1.230469 83.359375 1.046875 83.363281 0.835938 Z M 95.527344 21.957031 L 133.652344 60.5 C 133.800781 60.648438 133.976562 60.722656 134.183594 60.722656 C 134.390625 60.726562 134.570312 60.652344 134.714844 60.503906 C 134.863281 60.359375 134.9375 60.179688 134.9375 59.96875 C 134.9375 59.761719 134.867188 59.582031 134.722656 59.433594 L 96.582031 20.890625 C 96.351562 20.648438 96.078125 20.589844 95.765625 20.714844 C 95.457031 20.839844 95.300781 21.070312 95.296875 21.410156 C 95.296875 21.625 95.375 21.808594 95.527344 21.957031 Z M 82.019531 16.820312 L 120.152344 55.363281 C 120.300781 55.496094 120.476562 55.5625 120.675781 55.558594 C 120.875 55.550781 121.042969 55.476562 121.183594 55.335938 C 121.324219 55.195312 121.398438 55.023438 121.402344 54.820312 C 121.40625 54.621094 121.34375 54.445312 121.210938 54.292969 L 83.074219 15.753906 C 82.925781 15.617188 82.753906 15.554688 82.554688 15.558594 C 82.355469 15.5625 82.183594 15.636719 82.042969 15.78125 C 81.902344 15.921875 81.832031 16.09375 81.824219 16.296875 C 81.820312 16.496094 81.882812 16.671875 82.019531 16.820312 Z M 82.019531 16.820312 " fill-opacity="1" fill-rule="nonzero"/></g></svg>