<svg xmlns="http://www.w3.org/2000/svg" xmlns:xlink="http://www.w3.org/1999/xlink" width="400" zoomAndPan="magnify" viewBox="0 0 300 187.499995" height="250" preserveAspectRatio="xMidYMid meet" version="1.0"><defs><clipPath id="f1b6301812"><path d="M 1 0 L 299.601562 0 L 299.601562 138.382812 L 1 138.382812 Z M 1 0 " clip-rule="nonzero"/></clipPath></defs><g clip-path="url(#f1b6301812)"><path fill="#8c3e4b" d="M 153.714844 0 L 8.945312 0 C 7.316406 0 5.683594 -0.0351562 4.0625 0.0546875 C 1.679688 0.191406 1.078125 0.851562 1.472656 3.082031 C 1.839844 5.121094 2.316406 7.132812 2.898438 9.121094 C 4.03125 13.039062 5.4375 16.855469 7.121094 20.570312 C 8.800781 24.285156 10.742188 27.863281 12.9375 31.300781 C 15.132812 34.738281 17.558594 38 20.222656 41.089844 C 22.886719 44.175781 25.757812 47.058594 28.835938 49.734375 C 34.175781 54.566406 39.902344 58.878906 46.023438 62.671875 C 52.140625 66.464844 58.550781 69.679688 65.25 72.316406 C 76.785156 76.75 88.707031 79.5 101.015625 80.566406 C 108.980469 81.269531 116.957031 81.484375 124.949219 81.199219 C 131.148438 80.988281 137.332031 80.3125 143.511719 79.742188 C 150.429688 79.101562 157.339844 78.34375 164.253906 77.648438 C 169.105469 77.160156 173.960938 76.691406 178.816406 76.210938 C 179.113281 76.183594 179.40625 76.128906 179.699219 76.117188 C 187.535156 75.800781 195.371094 75.15625 203.199219 75.246094 C 210.253906 75.285156 217.222656 76.085938 224.101562 77.648438 C 230.984375 79.210938 237.613281 81.5 243.996094 84.507812 C 252.863281 88.6875 261.234375 93.691406 269.113281 99.523438 C 276.992188 105.355469 284.226562 111.898438 290.8125 119.160156 C 295.460938 124.351562 299.6875 129.871094 303.480469 135.71875 C 304.050781 136.578125 304.640625 137.429688 305.273438 138.242188 C 305.492188 138.449219 305.75 138.53125 306.046875 138.492188 C 306.335938 138.421875 306.542969 138.253906 306.671875 137.988281 C 306.824219 137.570312 306.90625 137.140625 306.914062 136.695312 C 306.953125 135.363281 306.953125 134.03125 306.953125 132.699219 C 306.953125 90.957031 306.953125 49.214844 306.953125 7.46875 C 306.953125 5.992188 306.984375 4.511719 306.878906 3.035156 C 306.722656 0.871094 306.078125 0.246094 303.804688 0.0859375 C 302.183594 -0.0273438 300.550781 0.0078125 298.925781 0.0078125 C 252.445312 0.0078125 205.964844 0.0078125 159.492188 0.0078125 Z M 153.714844 0 " fill-opacity="1" fill-rule="nonzero"/></g></svg>